<svg id="Layer_1_copy" data-name="Layer 1 copy" xmlns="http://www.w3.org/2000/svg" viewBox="0 0 480 480"><defs><style>.cls-1{fill:#010101;}.cls-2{fill:#fff;}</style></defs><title>crocs</title><polygon class="cls-1" points="120 270 106.91 320 93.82 270 106.91 270 120 270"/><rect class="cls-1" x="129" y="229" width="12" height="50" transform="translate(-119 389) rotate(-90)"/><polygon class="cls-1" points="160 241.99 160 247.99 154 247.99 160 241.99"/><rect class="cls-1" x="129" y="207.01" width="12" height="50" transform="translate(-97.01 367.01) rotate(-90)"/><polygon class="cls-1" points="160 220 160 226 154 226 160 220"/><polygon class="cls-1" points="91.2 212 80.63 212 78.01 214 67.44 214 64.48 216.26 64.14 216 54.26 216 50.88 218.57 50.13 218 41.07 218 37.28 220.89 36.12 220 27.88 220 21.21 225.09 18.67 233.33 20.73 240 18.67 246.67 21.21 254.91 27.88 260 36.12 260 37.28 259.11 41.07 262 50.13 262 50.88 261.43 54.26 264 64.14 264 64.48 263.74 67.44 266 78.01 266 80.63 268 91.2 268 93.82 270 106.18 270 116.18 262.36 120 250 116.91 240 120 230 116.18 217.64 106.18 210 93.82 210 91.2 212"/><polygon class="cls-1" points="25.33 175.83 25.33 240 0 240 0 180 4 176 25.33 175.83"/><polygon class="cls-1" points="0 240 2.67 231.35 9.67 226 18.33 226 25.33 231.35 28 240 25.33 248.65 18.33 254 9.67 254 2.67 248.65 0 240"/><polygon class="cls-2" points="6.89 229.65 6.05 232.34 6.05 236.7 6.89 239.4 9.06 241.06 11.76 241.06 13.94 239.4 14.77 236.7 14.77 232.34 13.94 229.65 11.76 227.99 9.06 227.99 6.89 229.65"/><polygon class="cls-1" points="6.92 234.52 7.59 232.37 9.33 231.04 11.49 231.04 13.23 232.37 13.9 234.52 13.23 236.68 11.49 238.01 9.33 238.01 7.59 236.68 6.92 234.52"/><path class="cls-2" d="M23.33,218" transform="translate(0)"/><line class="cls-2" x1="19.33" y1="218" x2="19.33" y2="216"/><polygon class="cls-2" points="23.58 220 19.58 222 19.58 218 23.58 220"/><polygon class="cls-2" points="23.58 212 19.58 214 19.58 210 23.58 212"/><polygon class="cls-2" points="19.58 216 23.58 218 23.58 214 19.58 216"/><polygon class="cls-2" points="23.58 204 19.58 206 19.58 202 23.58 204"/><polygon class="cls-2" points="19.58 208 23.58 210 23.58 206 19.58 208"/><polygon class="cls-2" points="23.58 196 19.58 198 19.58 194 23.58 196"/><polygon class="cls-2" points="19.58 200 23.58 202 23.58 198 19.58 200"/><polygon class="cls-2" points="23.58 188 19.58 190 19.58 186 23.58 188"/><polygon class="cls-2" points="23.58 180 19.58 182 19.58 178 23.58 180"/><polygon class="cls-2" points="19.58 192 23.58 194 23.58 190 19.58 192"/><polygon class="cls-2" points="19.58 184 23.58 186 23.58 182 19.58 184"/><rect class="cls-1" x="101.75" y="251.75" width="19.62" height="16.87" transform="translate(-148.63 371.75) rotate(-90)"/><polygon class="cls-2" points="6 178 6 182 2 182 6 178"/><polygon class="cls-1" points="360 210 373.09 160 386.18 210 373.09 210 360 210"/><rect class="cls-1" x="339" y="201" width="12" height="50" transform="translate(571 -119) rotate(90)"/><polygon class="cls-1" points="320 238.01 320 232.01 326 232.01 320 238.01"/><rect class="cls-1" x="339" y="222.99" width="12" height="50" transform="translate(592.99 -97.01) rotate(90)"/><polygon class="cls-1" points="320 260 320 254 326 254 320 260"/><polygon class="cls-1" points="388.8 268 399.37 268 401.99 266 412.56 266 415.51 263.74 415.86 264 425.74 264 429.12 261.43 429.87 262 438.93 262 442.71 259.11 443.88 260 452.12 260 458.79 254.91 461.33 246.67 459.27 240 461.33 233.33 458.79 225.09 452.12 220 443.88 220 442.71 220.89 438.93 218 429.87 218 429.12 218.57 425.74 216 415.86 216 415.51 216.26 412.56 214 401.99 214 399.37 212 388.8 212 386.18 210 373.82 210 363.82 217.64 360 230 363.09 240 360 250 363.82 262.36 373.82 270 386.18 270 388.8 268"/><polygon class="cls-1" points="454.67 304.17 454.67 240 480 240 480 300 476 304 454.67 304.17"/><polygon class="cls-1" points="480 240 477.33 248.65 470.33 254 461.67 254 454.67 248.65 452 240 454.67 231.35 461.67 226 470.33 226 477.33 231.35 480 240"/><polygon class="cls-2" points="473.11 250.35 473.95 247.66 473.95 243.3 473.11 240.6 470.94 238.94 468.24 238.94 466.06 240.6 465.23 243.3 465.23 247.66 466.06 250.35 468.24 252.01 470.94 252.01 473.11 250.35"/><polygon class="cls-1" points="473.07 245.48 472.41 247.63 470.67 248.96 468.51 248.96 466.77 247.63 466.1 245.48 466.77 243.32 468.51 241.99 470.67 241.99 472.41 243.32 473.07 245.48"/><path class="cls-2" d="M456.67,262" transform="translate(0)"/><line class="cls-2" x1="460.67" y1="262" x2="460.67" y2="264"/><polygon class="cls-2" points="456.42 260 460.42 258 460.42 262 456.42 260"/><polygon class="cls-2" points="456.42 268 460.42 266 460.42 270 456.42 268"/><polygon class="cls-2" points="460.42 264 456.42 262 456.42 266 460.42 264"/><polygon class="cls-2" points="456.42 276 460.42 274 460.42 278 456.42 276"/><polygon class="cls-2" points="460.42 272 456.42 270 456.42 274 460.42 272"/><polygon class="cls-2" points="456.42 284 460.42 282 460.42 286 456.42 284"/><polygon class="cls-2" points="460.42 280 456.42 278 456.42 282 460.42 280"/><polygon class="cls-2" points="456.42 292 460.42 290 460.42 294 456.42 292"/><polygon class="cls-2" points="456.42 300 460.42 298 460.42 302 456.42 300"/><polygon class="cls-2" points="460.42 288 456.42 286 456.42 290 460.42 288"/><polygon class="cls-2" points="460.42 296 456.42 294 456.42 298 460.42 296"/><rect class="cls-1" x="358.63" y="211.37" width="19.62" height="16.87" transform="translate(588.25 -148.63) rotate(90)"/><polygon class="cls-2" points="474 302 474 298 478 298 474 302"/><polygon class="cls-1" points="230 120 180 106.91 230 93.82 230 106.91 230 120"/><rect class="cls-1" x="240" y="110" width="12" height="50"/><polygon class="cls-1" points="258.01 160 252.01 160 252.01 154 258.01 160"/><rect class="cls-1" x="261.99" y="110" width="12" height="50"/><polygon class="cls-1" points="280 160 274 160 274 154 280 160"/><polygon class="cls-1" points="288 91.2 288 80.63 286 78.01 286 67.44 283.74 64.48 284 64.14 284 54.26 281.43 50.88 282 50.13 282 41.07 279.11 37.28 280 36.12 280 27.88 274.91 21.21 266.67 18.67 260 20.73 253.33 18.67 245.09 21.21 240 27.88 240 36.12 240.89 37.28 238 41.07 238 50.13 238.57 50.88 236 54.26 236 64.14 236.26 64.48 234 67.44 234 78.01 232 80.63 232 91.2 230 93.82 230 106.18 237.64 116.18 250 120 260 116.91 270 120 282.36 116.18 290 106.18 290 93.82 288 91.2"/><polygon class="cls-1" points="324.17 25.33 260 25.33 260 0 320 0 324 4 324.17 25.33"/><polygon class="cls-1" points="260 0 268.65 2.67 274 9.67 274 18.33 268.65 25.33 260 28 251.35 25.33 246 18.33 246 9.67 251.35 2.67 260 0"/><polygon class="cls-2" points="270.35 6.89 267.65 6.05 263.3 6.05 260.6 6.89 258.94 9.06 258.94 11.76 260.6 13.94 263.3 14.77 267.65 14.77 270.35 13.94 272.01 11.76 272.01 9.06 270.35 6.89"/><polygon class="cls-1" points="265.48 6.92 267.63 7.59 268.96 9.33 268.96 11.49 267.63 13.23 265.48 13.9 263.32 13.23 261.99 11.49 261.99 9.33 263.32 7.59 265.48 6.92"/><path class="cls-2" d="M282,23.33" transform="translate(0)"/><line class="cls-2" x1="282" y1="19.33" x2="284" y2="19.33"/><polygon class="cls-2" points="280 23.58 278 19.58 282 19.58 280 23.58"/><polygon class="cls-2" points="288 23.58 286 19.58 290 19.58 288 23.58"/><polygon class="cls-2" points="284 19.58 282 23.58 286 23.58 284 19.58"/><polygon class="cls-2" points="296 23.58 294 19.58 298 19.58 296 23.58"/><polygon class="cls-2" points="292 19.58 290 23.58 294 23.58 292 19.58"/><polygon class="cls-2" points="304 23.58 302 19.58 306 19.58 304 23.58"/><polygon class="cls-2" points="300 19.58 298 23.58 302 23.58 300 19.58"/><polygon class="cls-2" points="312 23.58 310 19.58 314 19.58 312 23.58"/><polygon class="cls-2" points="320 23.58 318 19.58 322 19.58 320 23.58"/><polygon class="cls-2" points="308 19.58 306 23.58 310 23.58 308 19.58"/><polygon class="cls-2" points="316 19.58 314 23.58 318 23.58 316 19.58"/><rect class="cls-1" x="230" y="103.12" width="19.62" height="16.87"/><polygon class="cls-2" points="322 6 318 6 318 2 322 6"/><polygon class="cls-1" points="290 360 340 373.09 290 386.18 290 373.09 290 360"/><rect class="cls-1" x="268" y="320" width="12" height="50" transform="translate(548 690) rotate(-180)"/><polygon class="cls-1" points="261.99 320 267.99 320 267.99 326 261.99 320"/><rect class="cls-1" x="246.01" y="320" width="12" height="50" transform="translate(504.02 690) rotate(-180)"/><polygon class="cls-1" points="240 320 246 320 246 326 240 320"/><polygon class="cls-1" points="232 388.8 232 399.37 234 401.99 234 412.56 236.26 415.51 236 415.86 236 425.74 238.57 429.12 238 429.87 238 438.93 240.89 442.71 240 443.88 240 452.12 245.09 458.79 253.33 461.33 260 459.27 266.67 461.33 274.91 458.79 280 452.12 280 443.88 279.11 442.71 282 438.93 282 429.87 281.43 429.12 284 425.74 284 415.86 283.74 415.51 286 412.56 286 401.99 288 399.37 288 388.8 290 386.18 290 373.82 282.36 363.82 270 360 260 363.09 250 360 237.64 363.82 230 373.82 230 386.18 232 388.8"/><polygon class="cls-1" points="195.83 454.67 260 454.67 260 480 200 480 196 476 195.83 454.67"/><polygon class="cls-1" points="260 480 251.35 477.33 246 470.33 246 461.67 251.35 454.67 260 452 268.65 454.67 274 461.67 274 470.33 268.65 477.33 260 480"/><polygon class="cls-2" points="249.65 473.11 252.34 473.95 256.7 473.95 259.39 473.11 261.06 470.94 261.06 468.24 259.39 466.06 256.7 465.23 252.34 465.23 249.65 466.06 247.99 468.24 247.99 470.94 249.65 473.11"/><polygon class="cls-1" points="254.52 473.07 252.37 472.41 251.04 470.67 251.04 468.51 252.37 466.77 254.52 466.1 256.68 466.77 258.01 468.51 258.01 470.67 256.68 472.41 254.52 473.07"/><path class="cls-2" d="M238,456.67" transform="translate(0)"/><line class="cls-2" x1="238" y1="460.67" x2="236" y2="460.67"/><polygon class="cls-2" points="240 456.42 242 460.42 238 460.42 240 456.42"/><polygon class="cls-2" points="232 456.42 234 460.42 230 460.42 232 456.42"/><polygon class="cls-2" points="236 460.42 238 456.42 234 456.42 236 460.42"/><polygon class="cls-2" points="224 456.42 226 460.42 222 460.42 224 456.42"/><polygon class="cls-2" points="228 460.42 230 456.42 226 456.42 228 460.42"/><polygon class="cls-2" points="216 456.42 218 460.42 214 460.42 216 456.42"/><polygon class="cls-2" points="220 460.42 222 456.42 218 456.42 220 460.42"/><polygon class="cls-2" points="208 456.42 210 460.42 206 460.42 208 456.42"/><polygon class="cls-2" points="200 456.42 202 460.42 198 460.42 200 456.42"/><polygon class="cls-2" points="212 460.42 214 456.42 210 456.42 212 460.42"/><polygon class="cls-2" points="204 460.42 206 456.42 202 456.42 204 460.42"/><rect class="cls-1" x="270.37" y="360" width="19.62" height="16.87" transform="translate(560.37 736.87) rotate(-180)"/><polygon class="cls-2" points="198 474 202 474 202 478 198 474"/></svg>